<svg width="400" height="400" xmlns="http://www.w3.org/2000/svg">
 <!-- Created with Method Draw - http://github.com/duopixel/Method-Draw/ -->
 <g>
  <title>background</title>
  <rect fill="none" id="canvas_background" height="402" width="402" y="-1" x="-1"/>
  <g display="none" id="canvasGrid">
   <rect fill="url(#gridpattern)" stroke-width="0" y="0" x="0" height="100%" width="100%" id="svg_1"/>
  </g>
 </g>
 <g>
  <title>Layer 1</title>
  <metadata id="svg_44">image/svg+xml</metadata>
  <defs>
   <clipPath id="svg_37" clipPathUnits="userSpaceOnUse">
    <path id="svg_43" d="m3174038.223099,-1139284.910625l7824.543,0l0,-3259.811l-7824.543,0l0,3259.811z"/>
   </clipPath>
   <clipPath id="svg_30" clipPathUnits="userSpaceOnUse">
    <path id="svg_42" d="m3174038.223099,-1139284.910625l7824.543,0l0,-3259.811l-7824.543,0l0,3259.811z"/>
   </clipPath>
  </defs>
  <defs>
   <rect fill="#60278e" id="svg_80" width="8" height="8"/>
   <style type="text/css">@import url('https://fonts.googleapis.com/css?family=Ubuntu');</style>
  </defs>
  <!-- Created with Method Draw - http://github.com/duopixel/Method-Draw/ -->
  <!-- Created with Method Draw - http://github.com/duopixel/Method-Draw/ -->
  <!-- Created with Method Draw - http://github.com/duopixel/Method-Draw/ -->
  <!-- Created with Method Draw - http://github.com/duopixel/Method-Draw/ -->
  <g stroke="null" id="svg_8">
   <text stroke="null" fill-opacity="0.5" transform="matrix(1.481581919030851,0,0,1.481581919030851,-11.326434689054352,-119.33503331009547) " font-weight="bold" xml:space="preserve" text-anchor="start" font-family="Ubuntu" font-size="20" id="svg_172" y="495.842049" x="-122.676932" stroke-width="0" fill="#cccccc"/>
   <g stroke="null" id="svg_54" display="none" transform="matrix(6.14214980018173,0,0,6.14214980018173,192.00701345054432,211.28755094374526) ">
    <rect stroke="null" id="svg_55" width="909" height="1310" x="-100.793396" y="-87.645112" stroke-width="0" fill="url(#gridpattern)"/>
   </g>
   <g stroke="null" id="svg_59" transform="matrix(6.14214980018173,0,0,6.14214980018173,192.00701345054432,211.28755094374526) ">
    <title stroke="null" transform="translate(0,-0.6512585878372192) translate(0,-0.6512585878372192) translate(0,-0.6512585878372192) translate(0,-0.6512585878372192) translate(0,-0.6512585878372192) translate(0,-0.6512585878372192) translate(6.512585639953613,0) translate(0,6.512585639953613) translate(0,0.6047568321228027) translate(0,0.6047568321228027) translate(0,0.6047568321228027) translate(0,0.6047568321228027) translate(0,-0.6047568321228027) translate(0,-0.6047568321228027) translate(0,-0.6047568321228027) translate(0,-0.6047568321228027) translate(0,-0.6047568321228027) translate(-6.047568321228027,0) translate(-6.047568321228027,0) translate(0,-6.047568321228027) translate(0,-6.047568321228027) translate(-6.047568321228027,0) translate(0,6.047568321228027) translate(0,-6.047568321228027) translate(0,-6.047568321228027) translate(0,-6.047568321228027) translate(-6.047568321228027,0) translate(-6.047568321228027,0) translate(0,-6.047568321228027) translate(0,-6.047568321228027) translate(0,-6.047568321228027) translate(0,0.6047568321228027) translate(0,0.6047568321228027) translate(0.6047568321228027,0) translate(0.6047568321228027,0) translate(0.6047568321228027,0) translate(0.6047568321228027,0) translate(0.6047568321228027,0) translate(-6.047568321228027,0) translate(0,-6.047568321228027) translate(-0.41558516025543213,0) translate(-0.41558516025543213,0) translate(-0.41558516025543213,0) translate(-0.41558516025543213,0) translate(-0.41558516025543213,0) translate(-0.41558516025543213,0) translate(-0.41558516025543213,0) translate(-0.41558516025543213,0) translate(-4.155851364135742,0) translate(-4.155851364135742,0) translate(0.41558516025543213,0) translate(0.41558516025543213,0) translate(0,0.41558516025543213) translate(0,0.41558516025543213) translate(0,0.41558516025543213) translate(4.155851364135742,0) translate(4.155851364135742,0) translate(0,4.155851364135742) translate(0,4.155851364135742) translate(4.155851364135742,0) translate(4.155851364135742,0) translate(4.155851364135742,0) translate(-4.155851364135742,0) translate(0,-4.155851364135742) translate(0,-4.155851364135742) translate(0,-4.155851364135742) translate(0,-4.155851364135742) translate(-4.155851364135742,0) translate(-4.155851364135742,0) translate(-4.155851364135742,0) translate(-4.155851364135742,0) translate(-4.155851364135742,0) translate(-4.155851364135742,0) translate(-4.155851364135742,0) translate(-4.155851364135742,0) translate(-4.155851364135742,0) translate(-4.155851364135742,0) translate(-4.155851364135742,0) translate(-4.155851364135742,0) translate(-4.155851364135742,0) translate(-4.155851364135742,0) translate(-4.155851364135742,0) translate(0,-4.155851364135742) translate(0,-4.155851364135742) translate(0,-4.155851364135742) translate(0,-4.155851364135742) translate(0,-4.155851364135742) translate(0,-4.155851364135742) translate(0,-4.155851364135742) translate(0,-4.155851364135742) translate(0,-4.155851364135742) translate(0,-4.155851364135742) translate(0,-4.155851364135742) translate(0,-4.155851364135742) translate(0,-4.155851364135742) translate(0,-4.155851364135742) translate(0,-4.155851364135742) translate(0,-4.155851364135742) translate(0,-4.155851364135742) translate(0,-4.155851364135742) translate(0,-4.155851364135742) translate(0,-4.155851364135742) translate(0,-4.155851364135742) translate(0,-4.155851364135742) translate(0,-4.155851364135742) translate(0,-4.155851364135742) translate(0,-4.155851364135742) translate(0,-4.155851364135742) translate(0,-4.155851364135742) translate(-0.0000032568516417086357,0) translate(-6.63507604598999,0) translate(0,-125.53267669677734) translate(4.571542739868164,141.5067901611328) translate(-10.805213928222656,56.93516540527344) translate(11.636384010314941,57.35074996948242) translate(-7.064947605133057,47.376705169677734) translate(0,-67.32479095458984) translate(-6.233777046203613,-74.80532836914062) ">Layer 1</title>
   </g>
   <g stroke="null" id="svg_5"/>
   <g stroke="null" id="svg_10">
    <path stroke="null" id="svg_149" d="m182.523325,477.096578l288.025211,0l0,-481.047358l-407.156068,158.338471l119.130857,322.708887z" stroke-opacity="null" stroke-width="1.5" fill="#612688"/>
    <path stroke="null" id="svg_150" d="m139.416555,218.911136l340.150222,-123.229343l0,361.130432l-244.020821,0c-32.043129,-79.300361 -64.086272,-158.600741 -96.129401,-237.901089z" stroke-opacity="null" stroke-width="1.5" fill="#ffffff"/>
    <g stroke="null" transform="matrix(0.291311249666391,-0.11182391174815025,0.12109848040327871,0.315472327049618,-16033.78700987013,-294.57695393820785) " id="svg_83">
     <title stroke="null" transform="translate(4.594069004058838,-11.051368713378906) translate(4.594069004058838,-11.051368713378906) translate(4.594069004058838,-11.051368713378906) translate(4.594069004058838,-11.051368713378906) translate(4.594069004058838,-11.051368713378906) translate(4.594069004058838,-11.051368713378906) translate(119.6795883178711,42.4222297668457) translate(-45.94068908691406,110.51368713378906) translate(-4.26603889465332,10.262269020080566) translate(-4.26603889465332,10.262269020080566) translate(-4.26603889465332,10.262269020080566) translate(-4.26603889465332,10.262269020080566) translate(4.26603889465332,-10.262269020080566) translate(4.26603889465332,-10.262269020080566) translate(4.26603889465332,-10.262269020080566) translate(4.26603889465332,-10.262269020080566) translate(4.26603889465332,-10.262269020080566) translate(-111.13411712646484,-39.393157958984375) translate(-111.13411712646484,-39.393157958984375) translate(42.6603889465332,-102.62268829345703) translate(42.6603889465332,-102.62268829345703) translate(-111.13411712646484,-39.393157958984375) translate(-42.6603889465332,102.62268829345703) translate(42.6603889465332,-102.62268829345703) translate(42.6603889465332,-102.62268829345703) translate(42.6603889465332,-102.62268829345703) translate(-111.13411712646484,-39.393157958984375) translate(-111.13411712646484,-39.393157958984375) translate(42.6603889465332,-102.62268829345703) translate(42.6603889465332,-102.62268829345703) translate(42.6603889465332,-102.62268829345703) translate(-4.26603889465332,10.262269020080566) translate(-4.26603889465332,10.262269020080566) translate(11.113411903381348,3.9393160343170166) translate(11.113411903381348,3.9393160343170166) translate(11.113411903381348,3.9393160343170166) translate(11.113411903381348,3.9393160343170166) translate(11.113411903381348,3.9393160343170166) translate(-111.13411712646484,-39.393157958984375) translate(42.6603889465332,-102.62268829345703) translate(-7.637067794799805,-2.707073450088501) translate(-7.637067794799805,-2.707073450088501) translate(-7.637067794799805,-2.707073450088501) translate(-7.637067794799805,-2.707073450088501) translate(-7.637067794799805,-2.707073450088501) translate(-7.637067794799805,-2.707073450088501) translate(-7.637067794799805,-2.707073450088501) translate(-7.637067794799805,-2.707073450088501) translate(-76.37067413330078,-27.070735931396484) translate(-76.37067413330078,-27.070735931396484) translate(7.637067794799805,2.707073450088501) translate(7.637067794799805,2.707073450088501) translate(-2.93159556388855,7.052167892456055) translate(-2.93159556388855,7.052167892456055) translate(-2.93159556388855,7.052167892456055) translate(76.37067413330078,27.070735931396484) translate(76.37067413330078,27.070735931396484) translate(-29.315956115722656,70.52167510986328) translate(-29.315956115722656,70.52167510986328) translate(76.37067413330078,27.070735931396484) translate(76.37067413330078,27.070735931396484) translate(76.37067413330078,27.070735931396484) translate(-76.37067413330078,-27.070735931396484) translate(29.315956115722656,-70.52167510986328) translate(29.315956115722656,-70.52167510986328) translate(29.315956115722656,-70.52167510986328) translate(29.315956115722656,-70.52167510986328) translate(-76.37067413330078,-27.070735931396484) translate(-76.37067413330078,-27.070735931396484) translate(-76.37067413330078,-27.070735931396484) translate(-76.37067413330078,-27.070735931396484) translate(-76.37067413330078,-27.070735931396484) translate(-76.37067413330078,-27.070735931396484) translate(-76.37067413330078,-27.070735931396484) translate(-76.37067413330078,-27.070735931396484) translate(-76.37067413330078,-27.070735931396484) translate(-76.37067413330078,-27.070735931396484) translate(-76.37067413330078,-27.070735931396484) translate(-76.37067413330078,-27.070735931396484) translate(-76.37067413330078,-27.070735931396484) translate(-76.37067413330078,-27.070735931396484) translate(-76.37067413330078,-27.070735931396484) translate(29.315956115722656,-70.52167510986328) translate(29.315956115722656,-70.52167510986328) translate(29.315956115722656,-70.52167510986328) translate(29.315956115722656,-70.52167510986328) translate(29.315956115722656,-70.52167510986328) translate(29.315956115722656,-70.52167510986328) translate(29.315956115722656,-70.52167510986328) translate(29.315956115722656,-70.52167510986328) translate(29.315956115722656,-70.52167510986328) translate(29.315956115722656,-70.52167510986328) translate(29.315956115722656,-70.52167510986328) translate(29.315956115722656,-70.52167510986328) translate(29.315956115722656,-70.52167510986328) translate(29.315956115722656,-70.52167510986328) translate(29.315956115722656,-70.52167510986328) translate(29.315956115722656,-70.52167510986328) translate(29.315956115722656,-70.52167510986328) translate(29.315956115722656,-70.52167510986328) translate(29.315956115722656,-70.52167510986328) translate(29.315956115722656,-70.52167510986328) translate(29.315956115722656,-70.52167510986328) translate(29.315956115722656,-70.52167510986328) translate(29.315956115722656,-70.52167510986328) translate(29.315956115722656,-70.52167510986328) translate(29.315956115722656,-70.52167510986328) translate(29.315956115722656,-70.52167510986328) translate(29.315956115722656,-70.52167510986328) translate(-0.000059850070101674646,-0.00002121475336025469) translate(-121.9305419921875,-43.220115661621094) translate(885.5250244140625,-2130.195068359375) translate(-210.08279418945312,-2234.84814453125) translate(-914.1989135742188,2431.04248046875) translate(-600.1923828125,895.7630615234375) translate(-190.72230529785156,1048.9971923828125) translate(-464.03204345703125,757.9268188476562) translate(474.9184875488281,-1142.451171875) translate(413.1311950683594,-1309.996337890625) ">Layer 1</title>
     <g stroke="null" id="svg_66">
      <path stroke="null" fill="#612688" id="svg_78" d="m48195.265029,19142.595311l23.40699,72.03932l-61.2803,-44.52274l75.74662,0l-61.28031,44.52274l23.407,-72.03932z"/>
      <path stroke="null" fill="#612688" id="svg_77" d="m48067.728599,19108.456221l23.40699,72.03934l-61.2803,-44.52276l75.74662,0l-61.28032,44.52276l23.40701,-72.03934z"/>
      <path stroke="null" id="svg_76" fill="#612688" d="m47974.896439,19015.636481l23.40701,72.03932l-61.28032,-44.52276l75.74663,0l-61.28031,44.52276l23.40699,-72.03932z"/>
      <path stroke="null" id="svg_75" fill="#612688" d="m48321.426369,19107.932601l23.40701,72.03932l-61.28032,-44.52276l75.74664,0l-61.28032,44.52276l23.40699,-72.03932z"/>
      <path stroke="null" id="svg_74" fill="#612688" d="m48415.445469,19015.636481l23.40701,72.03932l-61.28032,-44.52276l75.74664,0l-61.28032,44.52276l23.40701,-72.03932l-0.00002,0z"/>
      <path stroke="null" id="svg_73" fill="#612688" d="m47974.579809,18758.978001l23.407,72.03933l-61.28031,-44.52276l75.74662,0l-61.2803,44.52276l23.40699,-72.03933z"/>
      <path stroke="null" id="svg_72" fill="#612688" d="m47940.106019,18886.265841l23.40699,72.03932l-61.2803,-44.52274l75.74662,0l-61.2803,44.52274l23.40699,-72.03932z"/>
      <path stroke="null" id="svg_71" fill="#612688" d="m48068.277789,18665.280031l23.40701,72.03932l-61.28032,-44.52275l75.74663,0l-61.28032,44.52275l23.40701,-72.03932l-0.00001,0z"/>
      <path stroke="null" id="svg_70" fill="#612688" d="m48193.797729,18629.922321l23.40699,72.03932l-61.28032,-44.52276l75.74664,0l-61.28032,44.52276l23.40701,-72.03932z"/>
      <path stroke="null" id="svg_69" fill="#612688" d="m48322.853419,18665.280031l23.40701,72.03932l-61.28032,-44.52275l75.74663,0l-61.28031,44.52275l23.40701,-72.03932l-0.00002,0z"/>
      <path stroke="null" id="svg_68" fill="#612688" d="m48416.551469,18758.978021l23.40701,72.03932l-61.28032,-44.52276l75.74663,0l-61.28031,44.52276l23.40699,-72.03932z"/>
      <path stroke="null" id="svg_67" fill="#612688" d="m48450.141289,18886.265841l23.40701,72.03932l-61.28032,-44.52274l75.74663,0l-61.28031,44.52274l23.40699,-72.03932z"/>
     </g>
     <metadata stroke="null" transform="translate(4.594069004058838,-11.051368713378906) translate(4.594069004058838,-11.051368713378906) translate(4.594069004058838,-11.051368713378906) translate(4.594069004058838,-11.051368713378906) translate(4.594069004058838,-11.051368713378906) translate(4.594069004058838,-11.051368713378906) translate(119.6795883178711,42.4222297668457) translate(-45.94068908691406,110.51368713378906) translate(-4.26603889465332,10.262269020080566) translate(-4.26603889465332,10.262269020080566) translate(-4.26603889465332,10.262269020080566) translate(-4.26603889465332,10.262269020080566) translate(4.26603889465332,-10.262269020080566) translate(4.26603889465332,-10.262269020080566) translate(4.26603889465332,-10.262269020080566) translate(4.26603889465332,-10.262269020080566) translate(4.26603889465332,-10.262269020080566) translate(-111.13411712646484,-39.393157958984375) translate(-111.13411712646484,-39.393157958984375) translate(42.6603889465332,-102.62268829345703) translate(42.6603889465332,-102.62268829345703) translate(-111.13411712646484,-39.393157958984375) translate(-42.6603889465332,102.62268829345703) translate(42.6603889465332,-102.62268829345703) translate(42.6603889465332,-102.62268829345703) translate(42.6603889465332,-102.62268829345703) translate(-111.13411712646484,-39.393157958984375) translate(-111.13411712646484,-39.393157958984375) translate(42.6603889465332,-102.62268829345703) translate(42.6603889465332,-102.62268829345703) translate(42.6603889465332,-102.62268829345703) translate(-4.26603889465332,10.262269020080566) translate(-4.26603889465332,10.262269020080566) translate(11.113411903381348,3.9393160343170166) translate(11.113411903381348,3.9393160343170166) translate(11.113411903381348,3.9393160343170166) translate(11.113411903381348,3.9393160343170166) translate(11.113411903381348,3.9393160343170166) translate(-111.13411712646484,-39.393157958984375) translate(42.6603889465332,-102.62268829345703) translate(-7.637067794799805,-2.707073450088501) translate(-7.637067794799805,-2.707073450088501) translate(-7.637067794799805,-2.707073450088501) translate(-7.637067794799805,-2.707073450088501) translate(-7.637067794799805,-2.707073450088501) translate(-7.637067794799805,-2.707073450088501) translate(-7.637067794799805,-2.707073450088501) translate(-7.637067794799805,-2.707073450088501) translate(-76.37067413330078,-27.070735931396484) translate(-76.37067413330078,-27.070735931396484) translate(7.637067794799805,2.707073450088501) translate(7.637067794799805,2.707073450088501) translate(-2.93159556388855,7.052167892456055) translate(-2.93159556388855,7.052167892456055) translate(-2.93159556388855,7.052167892456055) translate(76.37067413330078,27.070735931396484) translate(76.37067413330078,27.070735931396484) translate(-29.315956115722656,70.52167510986328) translate(-29.315956115722656,70.52167510986328) translate(76.37067413330078,27.070735931396484) translate(76.37067413330078,27.070735931396484) translate(76.37067413330078,27.070735931396484) translate(-76.37067413330078,-27.070735931396484) translate(29.315956115722656,-70.52167510986328) translate(29.315956115722656,-70.52167510986328) translate(29.315956115722656,-70.52167510986328) translate(29.315956115722656,-70.52167510986328) translate(-76.37067413330078,-27.070735931396484) translate(-76.37067413330078,-27.070735931396484) translate(-76.37067413330078,-27.070735931396484) translate(-76.37067413330078,-27.070735931396484) translate(-76.37067413330078,-27.070735931396484) translate(-76.37067413330078,-27.070735931396484) translate(-76.37067413330078,-27.070735931396484) translate(-76.37067413330078,-27.070735931396484) translate(-76.37067413330078,-27.070735931396484) translate(-76.37067413330078,-27.070735931396484) translate(-76.37067413330078,-27.070735931396484) translate(-76.37067413330078,-27.070735931396484) translate(-76.37067413330078,-27.070735931396484) translate(-76.37067413330078,-27.070735931396484) translate(-76.37067413330078,-27.070735931396484) translate(29.315956115722656,-70.52167510986328) translate(29.315956115722656,-70.52167510986328) translate(29.315956115722656,-70.52167510986328) translate(29.315956115722656,-70.52167510986328) translate(29.315956115722656,-70.52167510986328) translate(29.315956115722656,-70.52167510986328) translate(29.315956115722656,-70.52167510986328) translate(29.315956115722656,-70.52167510986328) translate(29.315956115722656,-70.52167510986328) translate(29.315956115722656,-70.52167510986328) translate(29.315956115722656,-70.52167510986328) translate(29.315956115722656,-70.52167510986328) translate(29.315956115722656,-70.52167510986328) translate(29.315956115722656,-70.52167510986328) translate(29.315956115722656,-70.52167510986328) translate(29.315956115722656,-70.52167510986328) translate(29.315956115722656,-70.52167510986328) translate(29.315956115722656,-70.52167510986328) translate(29.315956115722656,-70.52167510986328) translate(29.315956115722656,-70.52167510986328) translate(29.315956115722656,-70.52167510986328) translate(29.315956115722656,-70.52167510986328) translate(29.315956115722656,-70.52167510986328) translate(29.315956115722656,-70.52167510986328) translate(29.315956115722656,-70.52167510986328) translate(29.315956115722656,-70.52167510986328) translate(29.315956115722656,-70.52167510986328) translate(-0.000059850070101674646,-0.00002121475336025469) translate(-121.9305419921875,-43.220115661621094) translate(885.5250244140625,-2130.195068359375) translate(-210.08279418945312,-2234.84814453125) translate(-914.1989135742188,2431.04248046875) translate(-600.1923828125,895.7630615234375) translate(-190.72230529785156,1048.9971923828125) translate(-464.03204345703125,757.9268188476562) translate(474.9184875488281,-1142.451171875) translate(413.1311950683594,-1309.996337890625) " id="svg_65">image/svg+xml</metadata>
     <defs stroke="null" transform="translate(4.594069004058838,-11.051368713378906) translate(4.594069004058838,-11.051368713378906) translate(4.594069004058838,-11.051368713378906) translate(4.594069004058838,-11.051368713378906) translate(4.594069004058838,-11.051368713378906) translate(4.594069004058838,-11.051368713378906) translate(119.6795883178711,42.4222297668457) translate(-45.94068908691406,110.51368713378906) translate(-4.26603889465332,10.262269020080566) translate(-4.26603889465332,10.262269020080566) translate(-4.26603889465332,10.262269020080566) translate(-4.26603889465332,10.262269020080566) translate(4.26603889465332,-10.262269020080566) translate(4.26603889465332,-10.262269020080566) translate(4.26603889465332,-10.262269020080566) translate(4.26603889465332,-10.262269020080566) translate(4.26603889465332,-10.262269020080566) translate(-111.13411712646484,-39.393157958984375) translate(-111.13411712646484,-39.393157958984375) translate(42.6603889465332,-102.62268829345703) translate(42.6603889465332,-102.62268829345703) translate(-111.13411712646484,-39.393157958984375) translate(-42.6603889465332,102.62268829345703) translate(42.6603889465332,-102.62268829345703) translate(42.6603889465332,-102.62268829345703) translate(42.6603889465332,-102.62268829345703) translate(-111.13411712646484,-39.393157958984375) translate(-111.13411712646484,-39.393157958984375) translate(42.6603889465332,-102.62268829345703) translate(42.6603889465332,-102.62268829345703) translate(42.6603889465332,-102.62268829345703) translate(-4.26603889465332,10.262269020080566) translate(-4.26603889465332,10.262269020080566) translate(11.113411903381348,3.9393160343170166) translate(11.113411903381348,3.9393160343170166) translate(11.113411903381348,3.9393160343170166) translate(11.113411903381348,3.9393160343170166) translate(11.113411903381348,3.9393160343170166) translate(-111.13411712646484,-39.393157958984375) translate(42.6603889465332,-102.62268829345703) translate(-7.637067794799805,-2.707073450088501) translate(-7.637067794799805,-2.707073450088501) translate(-7.637067794799805,-2.707073450088501) translate(-7.637067794799805,-2.707073450088501) translate(-7.637067794799805,-2.707073450088501) translate(-7.637067794799805,-2.707073450088501) translate(-7.637067794799805,-2.707073450088501) translate(-7.637067794799805,-2.707073450088501) translate(-76.37067413330078,-27.070735931396484) translate(-76.37067413330078,-27.070735931396484) translate(7.637067794799805,2.707073450088501) translate(7.637067794799805,2.707073450088501) translate(-2.93159556388855,7.052167892456055) translate(-2.93159556388855,7.052167892456055) translate(-2.93159556388855,7.052167892456055) translate(76.37067413330078,27.070735931396484) translate(76.37067413330078,27.070735931396484) translate(-29.315956115722656,70.52167510986328) translate(-29.315956115722656,70.52167510986328) translate(76.37067413330078,27.070735931396484) translate(76.37067413330078,27.070735931396484) translate(76.37067413330078,27.070735931396484) translate(-76.37067413330078,-27.070735931396484) translate(29.315956115722656,-70.52167510986328) translate(29.315956115722656,-70.52167510986328) translate(29.315956115722656,-70.52167510986328) translate(29.315956115722656,-70.52167510986328) translate(-76.37067413330078,-27.070735931396484) translate(-76.37067413330078,-27.070735931396484) translate(-76.37067413330078,-27.070735931396484) translate(-76.37067413330078,-27.070735931396484) translate(-76.37067413330078,-27.070735931396484) translate(-76.37067413330078,-27.070735931396484) translate(-76.37067413330078,-27.070735931396484) translate(-76.37067413330078,-27.070735931396484) translate(-76.37067413330078,-27.070735931396484) translate(-76.37067413330078,-27.070735931396484) translate(-76.37067413330078,-27.070735931396484) translate(-76.37067413330078,-27.070735931396484) translate(-76.37067413330078,-27.070735931396484) translate(-76.37067413330078,-27.070735931396484) translate(-76.37067413330078,-27.070735931396484) translate(29.315956115722656,-70.52167510986328) translate(29.315956115722656,-70.52167510986328) translate(29.315956115722656,-70.52167510986328) translate(29.315956115722656,-70.52167510986328) translate(29.315956115722656,-70.52167510986328) translate(29.315956115722656,-70.52167510986328) translate(29.315956115722656,-70.52167510986328) translate(29.315956115722656,-70.52167510986328) translate(29.315956115722656,-70.52167510986328) translate(29.315956115722656,-70.52167510986328) translate(29.315956115722656,-70.52167510986328) translate(29.315956115722656,-70.52167510986328) translate(29.315956115722656,-70.52167510986328) translate(29.315956115722656,-70.52167510986328) translate(29.315956115722656,-70.52167510986328) translate(29.315956115722656,-70.52167510986328) translate(29.315956115722656,-70.52167510986328) translate(29.315956115722656,-70.52167510986328) translate(29.315956115722656,-70.52167510986328) translate(29.315956115722656,-70.52167510986328) translate(29.315956115722656,-70.52167510986328) translate(29.315956115722656,-70.52167510986328) translate(29.315956115722656,-70.52167510986328) translate(29.315956115722656,-70.52167510986328) translate(29.315956115722656,-70.52167510986328) translate(29.315956115722656,-70.52167510986328) translate(29.315956115722656,-70.52167510986328) translate(-0.000059850070101674646,-0.00002121475336025469) translate(-121.9305419921875,-43.220115661621094) translate(885.5250244140625,-2130.195068359375) translate(-210.08279418945312,-2234.84814453125) translate(-914.1989135742188,2431.04248046875) translate(-600.1923828125,895.7630615234375) translate(-190.72230529785156,1048.9971923828125) translate(-464.03204345703125,757.9268188476562) translate(474.9184875488281,-1142.451171875) translate(413.1311950683594,-1309.996337890625) ">
      <clipPath stroke="null" clipPathUnits="userSpaceOnUse" id="svg_60">
       <path stroke="null" fill="#612688" d="m502597.92241,-220060.47942c0,-828.43 -671.57,-1500 -1500,-1500c-828.426,0 -1500,671.57 -1500,1500c0,828.43 671.574,1500 1500,1500c828.43,0 1500,-671.57 1500,-1500z" id="svg_64"/>
      </clipPath>
     </defs>
    </g>
    <text stroke="null" transform="matrix(1.383175879859365,-0.5309514744064774,0.5309514744064774,1.383175879859365,-233.538795219549,661.9737114898137) " font-weight="bold" xml:space="preserve" text-anchor="start" font-family="Ubuntu" font-size="20" id="svg_3" y="-197.334314" x="374.837628" stroke-width="0" fill="#ffffff">Date à retenir !</text>
    <g stroke="null" id="svg_4">
     <text stroke="null" transform="matrix(1.0192321549072556,-0.4326383816291767,0.4326383816291767,1.0192321549072556,56.24580920834522,930.9061475418804) " font-weight="bold" xml:space="preserve" text-anchor="start" font-family="Ubuntu" font-size="48" id="svg_12" y="-451.810831" x="387.284375" stroke-width="0" fill="#612688">Mai</text>
     <text stroke="null" transform="matrix(1.0192321549072556,-0.4326383816291767,0.4326383816291767,1.0192321549072556,40.125140761903346,941.287401545038) " font-weight="bold" xml:space="preserve" text-anchor="start" font-family="Ubuntu" font-size="48" id="svg_2" y="-411.429649" x="416.784045" stroke-width="0" fill="#612688">26</text>
    </g>
    <g stroke="null" id="svg_22" transform="matrix(1.2029069276838142,-0.46175270703276416,0.46175270703276416,1.2029069276838142,-218.20348684913918,647.6122077102216) ">
     <rect stroke="#ffffff" fill="#612688" stroke-width="8" x="371.272982" y="-292.662227" width="56" height="28" id="svg_6" rx="16" transform="rotate(90 399.2736206054688,-278.6620178222656) "/>
     <rect stroke="#ffffff" fill="#612688" stroke-width="8" x="431.272982" y="-292.662227" width="56" height="28" id="svg_7" rx="16" transform="rotate(90 459.2737426757813,-278.6620178222656) "/>
     <rect stroke="#ffffff" fill="#612688" stroke-width="8" x="491.272982" y="-292.662227" width="56" height="28" id="svg_15" rx="16" transform="rotate(90 519.2738647460939,-278.6620178222657) "/>
     <rect stroke="#ffffff" fill="#612688" stroke-width="8" x="551.272982" y="-292.662227" width="56" height="28" id="svg_16" rx="16" transform="rotate(90 579.2739257812501,-278.6620178222657) "/>
    </g>
   </g>
  </g>
 </g>
</svg>